<?xml version="1.0" encoding="UTF-8"?>
<svg width="750px" height="540px" viewBox="0 0 750 540" version="1.1" xmlns="http://www.w3.org/2000/svg" xmlns:xlink="http://www.w3.org/1999/xlink">
    <!-- Generator: Sketch 63.1 (92452) - https://sketch.com -->
    <title>banner</title>
    <desc>Created with Sketch.</desc>
    <defs>
        <linearGradient x1="7.50598903%" y1="31.6385411%" x2="89.8191187%" y2="74.3299651%" id="linearGradient-1">
            <stop stop-color="#072FFF" offset="0%"></stop>
            <stop stop-color="#0774FF" stop-opacity="0" offset="100%"></stop>
        </linearGradient>
        <linearGradient x1="7.50598903%" y1="40.1042308%" x2="89.8191187%" y2="63.1124505%" id="linearGradient-2">
            <stop stop-color="#072FFF" offset="0%"></stop>
            <stop stop-color="#0774FF" stop-opacity="0" offset="100%"></stop>
        </linearGradient>
        <linearGradient x1="7.50598903%" y1="39.9969603%" x2="89.8191187%" y2="63.2545898%" id="linearGradient-3">
            <stop stop-color="#072FFF" offset="0%"></stop>
            <stop stop-color="#0774FF" stop-opacity="0" offset="100%"></stop>
        </linearGradient>
        <linearGradient x1="8.06695993%" y1="31.6385411%" x2="89.2934595%" y2="74.3299651%" id="linearGradient-4">
            <stop stop-color="#072FFF" offset="0%"></stop>
            <stop stop-color="#0774FF" stop-opacity="0" offset="100%"></stop>
        </linearGradient>
        <linearGradient x1="50%" y1="0%" x2="50%" y2="100%" id="linearGradient-5">
            <stop stop-color="#319DFF" offset="0%"></stop>
            <stop stop-color="#FFE9C8" offset="76.422614%"></stop>
        </linearGradient>
        <rect id="path-6" x="0" y="0" width="184" height="397" rx="24"></rect>
        <filter x="-30.4%" y="-14.1%" width="160.9%" height="128.2%" filterUnits="objectBoundingBox" id="filter-7">
            <feMorphology radius="14" operator="dilate" in="SourceAlpha" result="shadowSpreadOuter1"></feMorphology>
            <feOffset dx="0" dy="0" in="shadowSpreadOuter1" result="shadowOffsetOuter1"></feOffset>
            <feGaussianBlur stdDeviation="14" in="shadowOffsetOuter1" result="shadowBlurOuter1"></feGaussianBlur>
            <feComposite in="shadowBlurOuter1" in2="SourceAlpha" operator="out" result="shadowBlurOuter1"></feComposite>
            <feColorMatrix values="0 0 0 0 0   0 0 0 0 0.235294118   0 0 0 0 0.854901961  0 0 0 0.599623033 0" type="matrix" in="shadowBlurOuter1"></feColorMatrix>
        </filter>
        <linearGradient x1="30.9036853%" y1="3.18289509%" x2="57.3596862%" y2="82.0824455%" id="linearGradient-8">
            <stop stop-color="#198EFF" offset="0%"></stop>
            <stop stop-color="#B9DBFF" offset="100%"></stop>
        </linearGradient>
        <rect id="path-9" x="28" y="126" width="128" height="200" rx="8"></rect>
        <filter x="-7.0%" y="-4.5%" width="114.1%" height="109.0%" filterUnits="objectBoundingBox" id="filter-10">
            <feGaussianBlur stdDeviation="9" in="SourceAlpha" result="shadowBlurInner1"></feGaussianBlur>
            <feOffset dx="0" dy="0" in="shadowBlurInner1" result="shadowOffsetInner1"></feOffset>
            <feComposite in="shadowOffsetInner1" in2="SourceAlpha" operator="arithmetic" k2="-1" k3="1" result="shadowInnerInner1"></feComposite>
            <feColorMatrix values="0 0 0 0 0.106539068   0 0 0 0 0.448530801   0 0 0 0 0.898324275  0 0 0 0.631528628 0" type="matrix" in="shadowInnerInner1"></feColorMatrix>
        </filter>
        <linearGradient x1="16.7049763%" y1="45.1171875%" x2="83.4389217%" y2="54.8828125%" id="linearGradient-11">
            <stop stop-color="#FFCD20" offset="0%"></stop>
            <stop stop-color="#F7A30D" offset="100%"></stop>
        </linearGradient>
        <path d="M92,113 C95.8659932,113 99,116.134007 99,120 C99,120.339871 98.9757782,120.674085 98.9289666,121.00101 L122,121 C123.104569,121 124,121.895431 124,123 L124,131 C124,132.104569 123.104569,133 122,133 L62,133 C60.8954305,133 60,132.104569 60,131 L60,123 C60,121.895431 60.8954305,121 62,121 L85.0710334,121.00101 C85.0242218,120.674085 85,120.339871 85,120 C85,116.134007 88.1340068,113 92,113 Z" id="path-12"></path>
        <filter x="-9.4%" y="-20.0%" width="125.0%" height="180.0%" filterUnits="objectBoundingBox" id="filter-13">
            <feOffset dx="2" dy="4" in="SourceAlpha" result="shadowOffsetOuter1"></feOffset>
            <feGaussianBlur stdDeviation="2" in="shadowOffsetOuter1" result="shadowBlurOuter1"></feGaussianBlur>
            <feColorMatrix values="0 0 0 0 0   0 0 0 0 0.235294118   0 0 0 0 0.854901961  0 0 0 0.388303103 0" type="matrix" in="shadowBlurOuter1"></feColorMatrix>
        </filter>
        <linearGradient x1="21.6653151%" y1="13.2670055%" x2="79.2656737%" y2="89.6354809%" id="linearGradient-14">
            <stop stop-color="#FF840F" offset="0%"></stop>
            <stop stop-color="#FFF75B" offset="100%"></stop>
        </linearGradient>
        <linearGradient x1="45.4660693%" y1="13.3401388%" x2="50%" y2="100%" id="linearGradient-15">
            <stop stop-color="#072FFF" offset="0%"></stop>
            <stop stop-color="#0774FF" stop-opacity="0" offset="100%"></stop>
        </linearGradient>
        <linearGradient x1="39.3764973%" y1="31.6385411%" x2="59.9547797%" y2="74.3299651%" id="linearGradient-16">
            <stop stop-color="#FFFFFF" offset="0%"></stop>
            <stop stop-color="#0774FF" stop-opacity="0" offset="100%"></stop>
        </linearGradient>
        <linearGradient x1="4.74634817%" y1="20.5093828%" x2="93.0420974%" y2="67.4737667%" id="linearGradient-17">
            <stop stop-color="#FFDE07" offset="0%"></stop>
            <stop stop-color="#FFBA03" offset="100%"></stop>
            <stop stop-color="#FFBA03" offset="100%"></stop>
        </linearGradient>
        <linearGradient x1="47.4227133%" y1="38.4379862%" x2="106.2419%" y2="32.5104802%" id="linearGradient-18">
            <stop stop-color="#FFDE07" stop-opacity="0" offset="0%"></stop>
            <stop stop-color="#FFA603" offset="100%"></stop>
        </linearGradient>
        <linearGradient x1="89.3695164%" y1="50%" x2="22.2441271%" y2="50%" id="linearGradient-19">
            <stop stop-color="#FFFFFF" stop-opacity="0" offset="0%"></stop>
            <stop stop-color="#FFFFFF" offset="100%"></stop>
        </linearGradient>
        <linearGradient x1="89.3695164%" y1="50%" x2="22.2441271%" y2="50%" id="linearGradient-20">
            <stop stop-color="#FFFFFF" stop-opacity="0" offset="0%"></stop>
            <stop stop-color="#FFFFFF" offset="100%"></stop>
        </linearGradient>
        <linearGradient x1="89.3695164%" y1="50%" x2="22.2441271%" y2="50%" id="linearGradient-21">
            <stop stop-color="#FFFFFF" stop-opacity="0" offset="0%"></stop>
            <stop stop-color="#FFFFFF" offset="100%"></stop>
        </linearGradient>
        <linearGradient x1="89.3695164%" y1="50%" x2="22.2441271%" y2="50%" id="linearGradient-22">
            <stop stop-color="#FFFFFF" stop-opacity="0" offset="0%"></stop>
            <stop stop-color="#FFFFFF" offset="100%"></stop>
        </linearGradient>
        <linearGradient x1="26.9008931%" y1="31.4960487%" x2="39.5655692%" y2="62.2061016%" id="linearGradient-23">
            <stop stop-color="#072FFF" offset="0%"></stop>
            <stop stop-color="#0774FF" stop-opacity="0" offset="100%"></stop>
        </linearGradient>
        <rect id="path-24" x="-1.98951966e-13" y="7" width="20" height="50"></rect>
        <filter x="-10.0%" y="-4.0%" width="120.0%" height="108.0%" filterUnits="objectBoundingBox" id="filter-25">
            <feGaussianBlur stdDeviation="1.5" in="SourceAlpha" result="shadowBlurInner1"></feGaussianBlur>
            <feOffset dx="0" dy="1" in="shadowBlurInner1" result="shadowOffsetInner1"></feOffset>
            <feComposite in="shadowOffsetInner1" in2="SourceAlpha" operator="arithmetic" k2="-1" k3="1" result="shadowInnerInner1"></feComposite>
            <feColorMatrix values="0 0 0 0 1   0 0 0 0 0.501960784   0 0 0 0 0  0 0 0 1 0" type="matrix" in="shadowInnerInner1"></feColorMatrix>
        </filter>
        <filter x="-25.0%" y="-37.5%" width="150.0%" height="175.0%" filterUnits="objectBoundingBox" id="filter-26">
            <feGaussianBlur stdDeviation="1.5" in="SourceGraphic"></feGaussianBlur>
        </filter>
        <linearGradient x1="100%" y1="50%" x2="0%" y2="50%" id="linearGradient-27">
            <stop stop-color="#FFBC80" offset="0%"></stop>
            <stop stop-color="#FFD3AB" offset="100%"></stop>
        </linearGradient>
        <filter x="-120.0%" y="-11.3%" width="340.0%" height="122.6%" filterUnits="objectBoundingBox" id="filter-28">
            <feGaussianBlur stdDeviation="2" in="SourceGraphic"></feGaussianBlur>
        </filter>
    </defs>
    <g id="上报" stroke="none" stroke-width="1" fill="none" fill-rule="evenodd">
        <g id="H5">
            <g id="编组-9" transform="translate(-158.000000, -109.000000)">
                <circle id="椭圆形" fill="url(#linearGradient-1)" cx="728" cy="112" r="41"></circle>
                <ellipse id="椭圆形备份" fill="url(#linearGradient-2)" opacity="0.499906994" transform="translate(496.000000, 96.500000) scale(-1, 1) translate(-496.000000, -96.500000) " cx="496" cy="96.5" rx="126" ry="92.5"></ellipse>
                <ellipse id="椭圆形备份-2" fill="url(#linearGradient-2)" transform="translate(158.000000, 152.500000) rotate(67.000000) translate(-158.000000, -152.500000) " cx="158" cy="152.5" rx="126" ry="92.5"></ellipse>
                <ellipse id="椭圆形备份-3" fill="url(#linearGradient-2)" transform="translate(135.000000, 467.500000) rotate(67.000000) translate(-135.000000, -467.500000) " cx="135" cy="467.5" rx="126" ry="92.5"></ellipse>
                <ellipse id="椭圆形备份-4" fill="url(#linearGradient-2)" opacity="0.216959635" transform="translate(681.000000, 467.500000) rotate(67.000000) translate(-681.000000, -467.500000) " cx="681" cy="467.5" rx="126" ry="92.5"></ellipse>
                <ellipse id="椭圆形备份-5" fill="url(#linearGradient-2)" opacity="0.274972098" transform="translate(429.000000, 572.500000) rotate(145.000000) translate(-429.000000, -572.500000) " cx="429" cy="572.5" rx="126" ry="92.5"></ellipse>
                <ellipse id="椭圆形备份-6" fill="url(#linearGradient-3)" opacity="0.274972098" transform="translate(348.000000, 401.000000) rotate(107.000000) translate(-348.000000, -401.000000) " cx="348" cy="401" rx="84" ry="62"></ellipse>
                <ellipse id="椭圆形备份-7" fill="url(#linearGradient-4)" opacity="0.274972098" transform="translate(764.000000, 364.000000) rotate(71.000000) translate(-764.000000, -364.000000) " cx="764" cy="364" rx="150" ry="151"></ellipse>
                <g id="编组-6" transform="translate(631.000000, 229.000000)">
                    <g id="矩形">
                        <use fill="black" fill-opacity="1" filter="url(#filter-7)" xlink:href="#path-6"></use>
                        <rect stroke="#FFFFFF" stroke-width="14" fill="url(#linearGradient-5)" fill-rule="evenodd" x="-7" y="-7" width="198" height="411" rx="24"></rect>
                    </g>
                    <path d="M43,0 L141,0 L141,6 C141,12.627417 135.627417,18 129,18 L55,18 C48.372583,18 43,12.627417 43,6 L43,0 L43,0 Z" id="矩形" fill="#FFFFFF"></path>
                    <g id="矩形">
                        <use fill="url(#linearGradient-8)" fill-rule="evenodd" xlink:href="#path-9"></use>
                        <use fill="black" fill-opacity="1" filter="url(#filter-10)" xlink:href="#path-9"></use>
                    </g>
                    <rect id="矩形" fill="#0774FF" x="72" y="150" width="40" height="8"></rect>
                    <rect id="矩形备份-2" fill="#0774FF" x="51" y="166" width="82" height="8"></rect>
                    <rect id="矩形备份-3" fill="#0774FF" x="51" y="182" width="55" height="8"></rect>
                    <rect id="矩形备份-4" fill="#0774FF" x="51" y="198" width="39" height="8"></rect>
                    <g id="形状结合">
                        <use fill="black" fill-opacity="1" filter="url(#filter-13)" xlink:href="#path-12"></use>
                        <use fill="url(#linearGradient-11)" fill-rule="evenodd" xlink:href="#path-12"></use>
                    </g>
                    <circle id="椭圆形" fill="url(#linearGradient-14)" opacity="0.466680618" cx="92" cy="120" r="5"></circle>
                </g>
                <rect id="矩形" fill="url(#linearGradient-15)" opacity="0.22000558" transform="translate(605.000000, 205.000000) rotate(-136.000000) translate(-605.000000, -205.000000) " x="590" y="175" width="30" height="60" rx="15"></rect>
                <rect id="矩形备份-5" fill="url(#linearGradient-16)" opacity="0.22000558" transform="translate(545.000000, 395.000000) rotate(-136.000000) translate(-545.000000, -395.000000) " x="530" y="365" width="30" height="60" rx="15"></rect>
                <path d="M381.93617,448.18806 C386.297872,445.821317 387.680851,441.840885 387.680851,434.202759 L387.680851,411.933856 L398,409.244375 L396.085106,393.968123 L387.680851,395.904549 L387.680851,383.963253 L396.829787,383.963253 L396.829787,368.79458 L387.680851,368.79458 L387.680851,349 L371.829787,349 L371.829787,368.79458 L359.382979,368.79458 L359.382979,383.963253 L371.829787,383.963253 L371.829787,399.562243 C366.723404,400.638036 362.042553,401.606249 358,402.359303 L361.191489,418.38861 L371.829787,415.806708 L371.829787,434.095179 C371.829787,435.816447 371.297872,436.354343 369.489362,436.354343 L367.667553,436.350982 C365.293883,436.340896 361.484043,436.300554 358.212766,436.139185 C360.234043,440.334775 362.255319,446.897109 362.787234,450.98512 C371.297872,451.092699 377.468085,450.662382 381.93617,448.18806 Z M422.267241,454 C428.024138,451.167756 433.02069,447.79085 437.365517,443.760349 C441.601724,447.681917 446.598276,450.949891 452.137931,453.56427 C454.527586,449.424837 459.415517,443.106754 463,440.056645 C457.243103,437.877996 452.246552,434.827887 447.793103,431.124183 C453.984483,421.320261 457.786207,409.228758 459.632759,394.958606 L449.531034,392.017429 L446.815517,392.453159 L415.641379,392.453159 L415.641379,368.59695 L440.95,368.59695 C440.624138,373.172113 440.081034,375.67756 439.212069,376.54902 C438.125862,377.529412 437.039655,377.638344 434.975862,377.638344 C432.586207,377.638344 427.155172,377.529412 421.289655,377.093682 C423.462069,380.579521 425.091379,386.026144 425.308621,389.83878 C431.825862,390.056645 438.125862,390.056645 442.036207,389.729847 C446.163793,389.40305 450.074138,388.422658 453.006897,385.372549 C455.831034,382.104575 456.917241,375.023965 457.351724,359.664488 C457.460345,357.812636 457.568966,354 457.568966,354 L400,354 L400,453.019608 L415.641379,453.019608 L415.641379,445.6122 C418.248276,448.22658 420.746552,451.385621 422.267241,454 Z M436.612613,419 C433.684685,414.957983 431.108108,410.588235 429,406 L442,406 C440.711712,410.697479 438.954955,415.067227 436.612613,419 Z M415,438 L415,408 C418.169811,416.362369 422.132075,423.783972 427,430.369338 C423.603774,433.296167 419.528302,435.804878 415,438 Z" id="上报" fill="#FFFFFF" fill-rule="nonzero"></path>
                <g id="编组-5" transform="translate(448.000000, 331.000000)">
                    <path d="M54.5833333,6.32258065 C57.3447571,6.32258065 59.5833333,8.5611569 59.5833333,11.3225806 L59.5833333,38.3548387 C59.5833333,41.1162625 57.3447571,43.3548387 54.5833333,43.3548387 L37.2396667,43.3545806 L32.5,49.6774194 L27.7596667,43.3545806 L10.4166667,43.3548387 C7.65524292,43.3548387 5.41666667,41.1162625 5.41666667,38.3548387 L5.41666667,11.3225806 C5.41666667,8.5611569 7.65524292,6.32258065 10.4166667,6.32258065 L54.5833333,6.32258065 Z" id="形状结合" fill="url(#linearGradient-17)" transform="translate(32.500000, 28.000000) rotate(-345.000000) translate(-32.500000, -28.000000) "></path>
                    <circle id="椭圆形" fill="url(#linearGradient-18)" opacity="0.826753162" transform="translate(37.000000, 25.000000) scale(1, -1) rotate(-53.000000) translate(-37.000000, -25.000000) " cx="37" cy="25" r="16"></circle>
                    <circle id="椭圆形备份-8" fill="url(#linearGradient-18)" opacity="0.600655692" transform="translate(33.000000, 19.000000) scale(1, -1) rotate(-67.000000) translate(-33.000000, -19.000000) " cx="33" cy="19" r="11"></circle>
                    <ellipse id="椭圆形" fill="#FFFFFF" transform="translate(30.864407, 34.107144) rotate(-345.000000) translate(-30.864407, -34.107144) " cx="30.8644074" cy="34.1071439" rx="2.70842337" ry="2.70958738"></ellipse>
                    <path d="M34.4850779,12.0035507 C36.2811088,12.0037736 37.7368989,13.459925 37.7366761,15.2559559 C37.736662,15.3693539 37.7307167,15.4826736 37.7188643,15.5954506 L36.4815439,27.3687689 C36.3742718,28.3894824 35.5135409,29.1643982 34.487206,29.1642708 C33.460741,29.1641435 32.5999659,28.3891835 32.4924325,27.3683667 L31.2521627,15.5944629 C31.0641016,13.8091958 32.3588929,12.2094973 34.1441599,12.0214362 C34.2574075,12.0095067 34.3712037,12.0035366 34.4850779,12.0035507 Z" id="矩形" fill="#FFFFFF" transform="translate(34.485078, 20.583799) rotate(-345.000000) translate(-34.485078, -20.583799) "></path>
                </g>
                <polygon id="路径" fill="#FFFFFF" fill-rule="nonzero" points="333 447 333 431.125984 288.03792 431.125984 288.03792 396.67829 325.307692 396.67829 325.307692 380.804274 288.03792 380.804274 288.03792 351 271.028169 351 271.028169 431.125984 233 431.125984 233 447"></polygon>
                <g id="编组-4" transform="translate(233.000000, 234.000000)" fill-rule="nonzero">
                    <path d="M187.409984,13.5348837 L187.409984,10.3461852 L202.571148,10.3461852 L202.571148,13.5348837 L215.024961,13.5348837 L215.024961,10.3461852 L220.981132,10.3461852 L220.981132,3.41901265 L215.024961,3.41901265 L215.024961,1 L202.571148,1 L202.571148,3.41901265 L187.409984,3.41901265 L187.409984,1 L174.956171,1 L174.956171,3.41901265 L169,3.41901265 L169,10.3461852 L174.956171,10.3461852 L174.956171,13.5348837 L187.409984,13.5348837 Z M264,37.7093023 L264,28.6665416 C260.483735,28.6665416 256.96747,28.1282821 253.451204,27.0517629 C256.465146,24.539885 258.869123,21.7947612 260.663136,18.8163916 C262.457149,15.838022 263.533557,12.7340585 263.892359,9.50450113 L263.892359,9.50450113 L264,9.50450113 L264,3.475994 L242.256564,3.475994 L244.517021,1 L229.770235,1 L222.773585,9.50450113 L252.590078,9.50450113 C252.159515,12.0163791 251.101048,14.3129532 249.414676,16.3942236 C247.728304,18.4754939 245.629309,20.3414604 243.117691,21.992123 C241.467199,20.772068 239.960228,19.3725931 238.596778,17.7936984 C237.233328,16.2148037 236.04928,14.3847212 235.044633,12.3034509 L235.044633,12.3034509 L223.634711,12.3034509 C224.424077,15.1024006 225.608125,17.7039885 227.186856,20.1082146 C228.765588,22.5124406 230.703122,24.7193048 232.999458,26.7288072 C231.420727,27.2311828 229.806115,27.6438485 228.155623,27.9668042 C226.505132,28.2897599 224.81876,28.5588897 223.096507,28.7741935 L223.096507,28.7741935 L223.096507,37.4939985 C226.828054,37.4222306 230.380199,37.0095649 233.752943,36.2560015 C237.125688,35.5024381 240.31903,34.4797449 243.332972,33.187922 C246.562195,34.6232808 249.934939,35.7177419 253.451204,36.4713053 C256.96747,37.2248687 260.483735,37.6375344 264,37.7093023 L264,37.7093023 Z M211.992728,37.7093023 C212.931276,37.7093023 213.94202,37.4875187 215.024961,37.0439514 C216.107901,36.600384 217.082547,35.990479 217.948899,35.2142362 C218.815252,34.4379934 219.537212,33.4954128 220.11478,32.3864946 C220.692348,31.2775763 220.981132,30.0947301 220.981132,28.837956 L220.981132,28.837956 L220.981132,14.7546938 L183.619693,14.7546938 L184.269458,13.5348837 L172.248821,13.5348837 L169,20.1883934 L209.935142,20.1883934 L209.935142,28.0617132 C209.935142,28.8009921 209.808798,29.2815234 209.556112,29.503307 C209.303426,29.7250907 208.888299,29.8359825 208.310731,29.8359825 L208.310731,29.8359825 L206.686321,29.8359825 L203.545794,37.7093023 L211.992728,37.7093023 Z M195.471323,35.9186047 C200.528177,35.9186047 203.056604,33.7356589 203.056604,29.3697674 L203.056604,29.3697674 L203.056604,21.5930233 L170.792453,21.5930233 L170.792453,35.9186047 L195.471323,35.9186047 Z M193.320884,32.3372093 L179.754717,32.3372093 L179.754717,26.9651163 L194.990566,26.9651163 L194.990566,29.9496124 C194.990566,30.5863049 194.834033,31.1434109 194.520968,31.6209302 C194.207903,32.0984496 193.807875,32.3372093 193.320884,32.3372093 L193.320884,32.3372093 Z M264,45.7674419 L264,40.494832 L224.388628,40.494832 L224.388628,38.6046512 L209.507599,38.6046512 L209.507599,40.494832 L169.896226,40.494832 L169.896226,45.7674419 L264,45.7674419 Z M261.311321,52.9302326 L261.311321,47.5581395 L173.481132,47.5581395 L173.481132,52.9302326 L261.311321,52.9302326 Z M261.311321,60.9883721 L261.311321,55.6162791 L173.481132,55.6162791 L173.481132,60.9883721 L261.311321,60.9883721 Z M251.410463,78 C254.604288,78 257.052887,77.371685 258.756261,76.1150551 C260.459634,74.8584251 261.311321,72.5785394 261.311321,69.2753978 L261.311321,69.2753978 L261.311321,63.6744186 L173.481132,63.6744186 L173.481132,78 L251.410463,78 Z M240.08584,72.627907 L189.613208,72.627907 L189.613208,68.1511628 L243.386792,68.1511628 L243.386792,68.6627907 C243.386792,69.7713178 243.067345,70.7093023 242.428451,71.4767442 C241.789557,72.244186 241.008687,72.627907 240.08584,72.627907 L240.08584,72.627907 Z" id="居民警情" fill="url(#linearGradient-19)"></path>
                    <path d="M94,0 L94,17.0456432 C94,19.3471646 93.2058372,21.2710927 91.6175115,22.8174274 C90.1086022,24.2864454 88.3064843,25.0576798 86.2111578,25.1311307 L85.8778802,25.1369295 L17.4354839,25.1369295 L17.4354839,70.0165975 L13.8617512,78 L0,78 L3.57373272,71.2033195 L3.57373272,0 L94,0 Z M62.8791187,27.7931034 L62.8791187,31.3793103 L92.2095238,31.3793103 L92.2095238,41.1598746 L62.8791187,41.1598746 L62.8791187,47.0282132 L91.127221,47.0282132 L91.127221,66.2633229 C91.127221,67.9296412 90.8205686,69.4691745 90.2072637,70.8819227 C89.5939588,72.2946708 88.7461549,73.5262975 87.6638522,74.5768025 C86.5815494,75.6273076 85.3188628,76.4604667 83.8757925,77.07628 C82.552978,77.6407756 81.13922,77.946544 79.6345185,77.9935853 L79.2218905,78 L20.7775409,78 L20.7775409,47.0282132 L48.9174129,47.0282132 L48.9174129,41.1598746 L19.6952381,41.1598746 L19.6952381,31.3793103 L48.9174129,31.3793103 L48.9174129,27.7931034 L62.8791187,27.7931034 Z M78.547412,57.0804598 L34.4082816,57.0804598 L34.4082816,68.5862069 L75.1520943,68.5862069 C76.1013229,68.5862069 76.9045163,68.269535 77.5616746,67.6361911 C78.1640697,67.0556259 78.490367,66.3567973 78.5405666,65.5397056 L78.547412,65.3139302 L78.547412,57.0804598 Z M81.4666667,8.32 L17.7555556,8.32 L17.7555556,16.64 L79.0950179,16.64 C79.7418312,16.64 80.2988093,16.4058874 80.7659522,15.9376623 C81.1811904,15.5214622 81.4118783,15.062575 81.4580159,14.5610005 L81.4666667,14.3709091 L81.4666667,8.32 Z" id="形状结合" fill="url(#linearGradient-20)"></path>
                    <path d="M175.463209,1 L175.463209,27.9874826 C175.463209,30.2007418 174.675915,32.0748725 173.101327,33.6098748 C171.605468,35.068127 169.818937,35.8337094 167.741734,35.906622 L167.411339,35.9123783 L148.731001,35.9123783 L155.065139,46.9429764 L176,46.9429764 L176,57.3310153 L161.077201,57.3310153 L172.993969,78 L156.138721,78 L144.221954,57.3310153 L101.81544,57.3310153 L101.81544,65.4700974 C101.81544,66.3982383 102.137515,67.1835883 102.781665,67.8261474 C103.372135,68.4151599 104.082887,68.7342084 104.913919,68.7832928 L105.143546,68.7899861 L111.477684,68.7899861 L107.290712,78 L98.7020507,78 C97.0558906,78 95.5349819,77.6965693 94.1393245,77.0897079 C92.7436671,76.4828465 91.509047,75.6439499 90.4354644,74.5730181 C89.3618818,73.5020862 88.5209087,72.2526657 87.9125452,70.8247566 C87.3594875,69.5266574 87.0578197,68.1400514 87.0075417,66.6649387 L87,66.2197497 L87,1 L175.463209,1 Z M131.877894,35.0232558 L102.282828,35.0232558 L102.282828,46.6627907 L138.242424,46.6627907 L131.877894,35.0232558 Z M163.581395,11.4054054 L102.523256,11.4054054 L102.523256,24.9324324 L159.958399,24.9324324 C160.597752,24.9324324 161.361422,24.7243243 162.249412,24.3081081 C163.073973,23.9216216 163.515702,23.4454151 163.5746,22.8794884 L163.581395,22.7472973 L163.581395,11.4054054 Z" id="形状结合" fill="url(#linearGradient-21)"></path>
                    <path d="M283.449186,0 L283.449186,27.5041322 L287.401869,28.2561983 L287.401869,39.214876 L283.449186,38.4628099 L283.449186,78 L270.822561,78 L270.822561,36.2066116 L266.979675,35.4545455 L266.979675,73.3801653 L256,73.3801653 L256,4.72727273 L266.979675,4.72727273 L266.979675,24.4958678 L270.822561,25.2479339 L270.822561,0 L283.449186,0 Z M352,36.7586207 L352,66.7908046 L351.9936,67.176341 C351.94667,68.5818966 351.641619,69.8985951 351.078449,71.1264368 C350.464082,72.4659004 349.650948,73.6467433 348.639049,74.6689655 C347.62715,75.6911877 346.434555,76.5019157 345.061263,77.1011494 C343.812816,77.6459073 342.474768,77.943048 341.047118,77.9925715 L340.616135,78 L329.340688,78 L332.376385,70.3862069 L334.327905,70.3862069 L334.541604,70.3796523 C335.243482,70.3359552 335.840825,70.0737722 336.333633,69.5931034 C336.826441,69.1124347 337.095246,68.5298059 337.140047,67.8452171 L337.146767,67.6367816 L304.946691,67.6367816 L304.946691,78 L290.093458,78 L290.093458,36.7586207 L352,36.7586207 Z M337.310312,55.3172414 L304.783146,55.3172414 L304.783146,59.4413793 L337.310312,59.4413793 L337.310312,55.3172414 Z M337.310312,43.9758621 L304.783146,43.9758621 L304.783146,47.0689655 L337.310312,47.0689655 L337.310312,43.9758621 Z M329.340688,0 L329.340688,2.05301584 L352,2.05301584 L352,10.1570257 L329.340688,10.1570257 L329.340688,13.5066831 L352,13.5066831 L352,21.610693 L329.340688,21.610693 L329.340688,24.9603504 L352,24.9603504 L352,33.1724138 L290.093458,33.1724138 L290.093458,24.9603504 L314.487454,24.9603504 L314.487454,21.610693 L290.093458,21.610693 L290.093458,13.5066831 L314.487454,13.5066831 L314.487454,10.1570257 L290.093458,10.1570257 L290.093458,2.05301584 L314.487454,2.05301584 L314.487454,0 L329.340688,0 Z" id="形状结合" fill="url(#linearGradient-22)"></path>
                </g>
                <text id="青岛市公安局-崂山分局" font-family="SourceHanSansSC-Heavy, Source Han Sans SC" font-size="20" font-weight="600" line-spacing="28" fill="#FFFFFF">
                    <tspan x="663" y="298">青岛市公安局</tspan>
                    <tspan x="683" y="326">崂山分局</tspan>
                </text>
                <polygon id="路径-3" fill="url(#linearGradient-23)" opacity="0.505301339" points="735.727615 502.273782 726.418261 494.590957 717.251263 480.748737 734.828997 487.969098 752.63444 498.364999"></polygon>
                <g id="编组-7" transform="translate(742.000000, 456.000000) rotate(-315.000000) translate(-742.000000, -456.000000) translate(732.000000, 421.000000)">
                    <g id="矩形">
                        <use fill="#FFAC00" fill-rule="evenodd" xlink:href="#path-24"></use>
                        <use fill="black" fill-opacity="1" filter="url(#filter-25)" xlink:href="#path-24"></use>
                    </g>
                    <polygon id="三角形" fill="#FCE0C0" transform="translate(10.000000, 63.500000) scale(1, -1) translate(-10.000000, -63.500000) " points="10 57 20 70 -1.98951966e-13 70"></polygon>
                    <polygon id="矩形" fill="#193D5D" points="8.79793811 68.4207901 11.2159559 68.4207901 10 70"></polygon>
                    <path d="M19,45.0655738 C13.6,44.7595628 10.45,45.5245902 9.55,47.3606557 C8.2,50.1147541 6.4,51.4918033 5.05,51.4918033 C4.15,51.4918033 2.8,52.5628415 1,54.704918 L1,57 L19,57 L19,45.0655738 Z" id="路径-2" fill="#FF8A00" filter="url(#filter-26)"></path>
                    <rect id="矩形" fill="#FFD58E" x="-1.13686838e-13" y="6" width="20" height="1"></rect>
                    <path d="M2,-5.68434189e-14 L18,-5.68434189e-14 C19.1045695,-5.7046325e-14 20,0.8954305 20,2 L20,6 L20,6 L-1.13686838e-13,6 L-1.13686838e-13,2 C-1.13822108e-13,0.8954305 0.8954305,-5.66405127e-14 2,-5.68434189e-14 Z" id="矩形备份-6" fill="url(#linearGradient-27)"></path>
                    <rect id="矩形" fill="#FF8A00" opacity="0.635695685" filter="url(#filter-28)" x="10" y="2" width="5" height="53"></rect>
                </g>
            </g>
        </g>
    </g>
</svg>